<svg width="16" height="18" viewBox="0 0 16 18" fill="none" xmlns="http://www.w3.org/2000/svg">
<path fill-rule="evenodd" clip-rule="evenodd" d="M9.77885 14.5262C9.77885 15.3253 8.96457 16.0009 8.00095 16.0009C7.03732 16.0009 6.22304 15.3253 6.22304 14.5262V14.223H9.77885V14.5262ZM15.5756 11.7399L13.9746 10.1371V6.16524C13.9746 3.07079 11.7505 0.443044 8.80004 0.051905C7.09237 -0.174778 5.3678 0.346148 4.07437 1.48045C2.77294 2.62009 2.02711 4.26021 2.02711 5.97944L2.02622 10.1371L0.426107 11.7407C0.00918763 12.1577 -0.114377 12.7799 0.111417 13.3249C0.3381 13.8698 0.865249 14.2227 1.45551 14.2227H4.44506V14.5258C4.44506 16.3197 6.03985 17.7785 8.00088 17.7785C9.96191 17.7785 11.5567 16.3197 11.5567 14.5258V14.2227H14.5453C15.1356 14.2227 15.6628 13.8707 15.8886 13.3249C16.1152 12.7799 15.9917 12.1577 15.5756 11.7399Z" fill="white"/>
</svg>
