<svg width="17" height="19" viewBox="0 0 17 19" fill="none" xmlns="http://www.w3.org/2000/svg">
<g clip-path="url(#clip0_1_2368)">
<g clip-path="url(#clip1_1_2368)">
<path d="M3.78799 3.77339C2.90433 3.77339 2.18799 4.48974 2.18799 5.37339V6.17339H14.988V5.37339C14.988 4.48974 14.2717 3.77339 13.388 3.77339H3.78799Z" fill="#C7C4C4"/>
<path fill-rule="evenodd" clip-rule="evenodd" d="M14.988 7.77328H2.18799V11.7733C2.18799 12.657 2.90433 13.3733 3.78799 13.3733H13.388C14.2717 13.3733 14.988 12.657 14.988 11.7733V7.77328ZM3.78799 10.9733C3.78799 10.5314 4.14616 10.1733 4.58799 10.1733H5.38799C5.82981 10.1733 6.18799 10.5314 6.18799 10.9733C6.18799 11.4151 5.82981 11.7733 5.38799 11.7733H4.58799C4.14616 11.7733 3.78799 11.4151 3.78799 10.9733ZM7.78799 10.1733C7.34616 10.1733 6.98799 10.5314 6.98799 10.9733C6.98799 11.4151 7.34616 11.7733 7.78799 11.7733H8.58799C9.02983 11.7733 9.38799 11.4151 9.38799 10.9733C9.38799 10.5314 9.02983 10.1733 8.58799 10.1733H7.78799Z" fill="#C7C4C4"/>
</g>
</g>
<defs>
<clipPath id="clip0_1_2368">
<rect width="16" height="18" fill="white" transform="translate(0.293945 0.573486)"/>
</clipPath>
<clipPath id="clip1_1_2368">
<rect width="16" height="16" fill="white" transform="translate(0.587891 0.573486)"/>
</clipPath>
</defs>
</svg>
