<svg width="334" height="182" viewBox="0 0 334 182" fill="none" xmlns="http://www.w3.org/2000/svg">
<rect width="334" height="182" rx="10" fill="#5F31B4"/>
<mask id="mask0_1_230" style="mask-type:alpha" maskUnits="userSpaceOnUse" x="0" y="0" width="334" height="182">
<rect width="334" height="182" rx="10" fill="#48258D"/>
</mask>
<g mask="url(#mask0_1_230)">
<g opacity="0.08">
<path d="M102.665 92.7602C101.359 91.9874 100.089 91.1618 98.9204 90.189C98.3947 89.7515 97.8948 89.2882 97.4815 88.7389C97.2916 88.4867 96.5773 87.5297 96.4801 86.9967C95.5815 85.0226 96.5346 84.7592 94.8912 81.012C94.3656 79.5001 94.0044 76.9868 101.531 71.5451C104.918 68.8353 109.238 64.3888 111.735 62.6995C116.64 59.5448 122.302 58.8613 123.245 58.9393C125.57 58.6832 132.472 58.9579 139.539 63.1179C141.622 64.472 143.522 66.0518 145.28 67.8064C145.714 68.2405 146.148 68.6741 146.506 69.1773C147.18 70.1236 147.965 71.8765 146.932 73.5805C145.771 75.9034 148.197 75.8517 148.634 77.5619C149.327 79.3445 149.684 82.438 143.04 89.6442C126.336 104.197 107.248 95.0606 102.665 92.7602Z" stroke="white" stroke-width="2" stroke-miterlimit="10"/>
<path d="M122.794 83.1533C123.985 83.9558 124.415 81.647 126.509 82.6135C129.033 83.5262 128.066 81.0028 130.965 82.0227C133.027 82.6854 132.48 80.1126 134.617 80.895C136.877 81.7228 135.893 79.1488 138.912 79.3376C140.381 79.3988 139.739 77.9464 141.331 77.5847C144.367 77.0703 143.179 75.9818 141.81 76.3036C141.274 76.4227 140.409 76.6883 140.308 76.7378C138.823 77.4595 134.163 79.7593 130.967 80.3783C129.721 80.6495 128.458 80.7647 127.188 80.804C125.126 80.8674 123.065 80.8511 121.011 80.6096C119.935 80.4833 113.795 79.847 112.652 79.0916C110.032 77.7212 110.389 80.2064 108.506 79.1887C107.234 78.5962 106.833 80.7085 105.318 79.7228C104.287 79.0854 103.381 80.1216 103.05 80.44C102.105 81.3628 100.937 80.1778 99.9802 80.5709C98.5851 80.7529 97.6376 81.9817 97.7955 83.3796C97.9943 85.1392 99.4893 85.9575 101.307 85.3307C101.478 85.274 101.683 85.1881 101.82 85.2414C103.929 85.201 103.044 86.7421 105.299 86.1996C106.098 85.971 106.158 84.9224 107.608 85.6205C109.487 86.5871 109.326 84.1709 111.313 84.9763C112.655 85.5672 112.602 83.4189 114.212 84.0098C116.354 84.7865 115.984 82.5063 118.401 83.5801C120.686 84.595 120.226 81.7003 122.794 83.1533Z" fill="white"/>
<path d="M102.665 168.661C101.359 167.888 100.089 167.063 98.9204 166.09C98.3947 165.652 97.8948 165.189 97.4815 164.64C97.2916 164.388 96.5773 163.431 96.4801 162.898C95.5815 160.923 96.5346 160.66 94.8912 156.913C94.3656 155.401 94.0044 152.888 101.531 147.446C104.918 144.736 109.238 140.29 111.735 138.6C116.64 135.446 122.302 134.762 123.245 134.84C125.57 134.584 132.472 134.859 139.539 139.019C141.622 140.373 143.522 141.953 145.28 143.707C145.714 144.141 146.148 144.575 146.506 145.078C147.18 146.025 147.965 147.777 146.932 149.481C145.771 151.804 148.197 151.753 148.634 153.463C149.327 155.245 149.684 158.339 143.04 165.545C126.336 180.098 107.248 170.961 102.665 168.661Z" stroke="white" stroke-width="2" stroke-miterlimit="10"/>
<path d="M122.794 159.055C123.985 159.857 124.415 157.548 126.509 158.515C129.033 159.428 128.066 156.904 130.965 157.924C133.027 158.587 132.48 156.014 134.617 156.796C136.877 157.624 135.893 155.05 138.912 155.239C140.381 155.3 139.739 153.848 141.331 153.486C144.367 152.972 143.179 151.883 141.81 152.205C141.274 152.324 140.409 152.59 140.308 152.639C138.823 153.361 134.163 155.661 130.967 156.28C129.721 156.551 128.458 156.666 127.188 156.705C125.126 156.769 123.065 156.752 121.011 156.511C119.935 156.385 113.795 155.748 112.652 154.993C110.032 153.623 110.389 156.108 108.506 155.09C107.234 154.498 106.833 156.61 105.318 155.624C104.287 154.987 103.381 156.023 103.05 156.341C102.105 157.264 100.937 156.079 99.9802 156.472C98.5851 156.654 97.6376 157.883 97.7955 159.281C97.9943 161.041 99.4893 161.859 101.307 161.232C101.478 161.175 101.683 161.089 101.82 161.143C103.929 161.102 103.044 162.643 105.299 162.101C106.098 161.872 106.158 160.824 107.608 161.522C109.487 162.488 109.326 160.072 111.313 160.878C112.655 161.468 112.602 159.32 114.212 159.911C116.354 160.688 115.984 158.408 118.401 159.481C120.686 160.496 120.226 157.602 122.794 159.055Z" fill="white"/>
<path d="M-12.1355 92.7602C-13.4413 91.9874 -14.7112 91.1618 -15.8799 90.189C-16.4056 89.7515 -16.9055 89.2882 -17.3188 88.7389C-17.5086 88.4867 -18.223 87.5297 -18.3202 86.9967C-19.2188 85.0226 -18.2657 84.7592 -19.9091 81.012C-20.4347 79.5001 -20.7959 76.9868 -13.2689 71.5451C-9.88227 68.8353 -5.56277 64.3888 -3.0652 62.6995C1.84008 59.5448 7.50132 58.8613 8.44486 58.9393C10.77 58.6832 17.6719 58.9579 24.7383 63.1179C26.822 64.472 28.722 66.0518 30.4793 67.8064C30.914 68.2405 31.3481 68.6741 31.7059 69.1773C32.3793 70.1236 33.165 71.8765 32.1322 73.5805C30.9707 75.9034 33.397 75.8517 33.8334 77.5619C34.5264 79.3445 34.8842 82.438 28.2395 89.6442C11.5355 104.197 -7.55262 95.0606 -12.1355 92.7602Z" stroke="white" stroke-width="2" stroke-miterlimit="10"/>
<path d="M7.99342 83.1533C9.18407 83.9558 9.61372 81.647 11.708 82.6135C14.232 83.5262 13.2654 81.0028 16.1646 82.0227C18.2263 82.6854 17.6787 80.1126 19.8157 80.895C22.0763 81.7228 21.0918 79.1488 24.1117 79.3376C25.5803 79.3988 24.9378 77.9464 26.5306 77.5847C29.5662 77.0703 28.3784 75.9818 27.0091 76.3036C26.4733 76.4227 25.6084 76.6883 25.5067 76.7378C24.0224 77.4595 19.3625 79.7593 16.1663 80.3783C14.9206 80.6495 13.6575 80.7647 12.3876 80.804C10.3247 80.8674 8.26412 80.8511 6.21024 80.6096C5.13416 80.4833 -1.00559 79.847 -2.14907 79.0916C-4.76907 77.7212 -4.41187 80.2064 -6.29502 79.1887C-7.56711 78.5962 -7.96756 80.7085 -9.48284 79.7228C-10.5134 79.0854 -11.4199 80.1216 -11.7513 80.44C-12.6959 81.3628 -13.8636 80.1778 -14.8206 80.5709C-16.2157 80.7529 -17.1631 81.9817 -17.0053 83.3796C-16.8065 85.1392 -15.3114 85.9575 -13.4934 85.3307C-13.3227 85.274 -13.1183 85.1881 -12.9807 85.2414C-10.8717 85.201 -11.7563 86.7421 -9.50193 86.1996C-8.70273 85.971 -8.64264 84.9224 -7.19307 85.6205C-5.31385 86.5871 -5.47504 84.1709 -3.48799 84.9763C-2.1457 85.5672 -2.19905 83.4189 -0.588293 84.0098C1.5532 84.7865 1.18365 82.5063 3.59978 83.5801C5.88506 84.595 5.42564 81.7003 7.99342 83.1533Z" fill="white"/>
<path d="M-12.1355 168.661C-13.4413 167.888 -14.7112 167.063 -15.8799 166.09C-16.4056 165.652 -16.9055 165.189 -17.3188 164.64C-17.5086 164.388 -18.223 163.431 -18.3202 162.898C-19.2188 160.923 -18.2657 160.66 -19.9091 156.913C-20.4347 155.401 -20.7959 152.888 -13.2689 147.446C-9.88227 144.736 -5.56277 140.29 -3.0652 138.6C1.84008 135.446 7.50132 134.762 8.44486 134.84C10.77 134.584 17.6719 134.859 24.7383 139.019C26.822 140.373 28.722 141.953 30.4793 143.707C30.914 144.141 31.3481 144.575 31.7059 145.078C32.3793 146.025 33.165 147.777 32.1322 149.481C30.9707 151.804 33.397 151.753 33.8334 153.463C34.5264 155.245 34.8842 158.339 28.2395 165.545C11.5355 180.098 -7.55262 170.961 -12.1355 168.661Z" stroke="white" stroke-width="2" stroke-miterlimit="10"/>
<path d="M7.99342 159.055C9.18407 159.857 9.61372 157.548 11.708 158.515C14.232 159.428 13.2654 156.904 16.1646 157.924C18.2263 158.587 17.6787 156.014 19.8157 156.796C22.0763 157.624 21.0918 155.05 24.1117 155.239C25.5803 155.3 24.9378 153.848 26.5306 153.486C29.5662 152.972 28.3784 151.883 27.0091 152.205C26.4733 152.324 25.6084 152.59 25.5067 152.639C24.0224 153.361 19.3625 155.661 16.1663 156.28C14.9206 156.551 13.6575 156.666 12.3876 156.705C10.3247 156.769 8.26412 156.752 6.21024 156.511C5.13416 156.385 -1.00559 155.748 -2.14907 154.993C-4.76907 153.623 -4.41187 156.108 -6.29502 155.09C-7.56711 154.498 -7.96756 156.61 -9.48284 155.624C-10.5134 154.987 -11.4199 156.023 -11.7513 156.341C-12.6959 157.264 -13.8636 156.079 -14.8206 156.472C-16.2157 156.654 -17.1631 157.883 -17.0053 159.281C-16.8065 161.041 -15.3114 161.859 -13.4934 161.232C-13.3227 161.175 -13.1183 161.089 -12.9807 161.143C-10.8717 161.102 -11.7563 162.643 -9.50193 162.101C-8.70273 161.872 -8.64264 160.824 -7.19307 161.522C-5.31385 162.488 -5.47504 160.072 -3.48799 160.878C-2.1457 161.468 -2.19905 159.32 -0.588293 159.911C1.5532 160.688 1.18365 158.408 3.59978 159.481C5.88506 160.496 5.42564 157.602 7.99342 159.055Z" fill="white"/>
<path d="M55.475 60.7428C56.4043 59.5433 57.3816 58.3861 58.4923 57.3476C58.9918 56.8805 59.5138 56.4422 60.1103 56.1004C60.3841 55.9435 61.4226 55.3538 61.9635 55.3237C64.0342 54.6778 64.1769 55.6563 68.0995 54.4923C69.6651 54.1589 72.2038 54.1134 76.6661 62.2593C78.9333 65.9569 82.8074 70.7964 84.1727 73.4848C86.6921 78.7447 86.6656 84.447 86.4706 85.3734C86.4353 87.7124 85.3036 94.5264 80.2962 101.02C78.6933 102.919 76.8891 104.607 74.9295 106.133C74.4446 106.51 73.9604 106.887 73.4165 107.179C72.3937 107.729 70.5567 108.291 68.9945 107.054C66.8343 105.612 66.5835 108.026 64.8323 108.246C62.9773 108.712 59.8634 108.682 53.5403 101.192C41.1806 82.8059 52.6219 65.0036 55.475 60.7428Z" stroke="white" stroke-width="2" stroke-miterlimit="10"/>
<path d="M62.5006 81.9118C61.5561 82.9933 63.7935 83.707 62.5737 85.6647C61.3539 88.0554 63.9781 87.4105 62.6052 90.1601C61.6909 92.1233 64.3119 91.9003 63.2696 93.9233C62.1668 96.0632 64.8433 95.4067 64.2801 98.3796C64.0365 99.8293 65.5576 99.3726 65.7181 100.998C65.8507 104.074 67.0785 103.031 66.9297 101.632C66.8783 101.086 66.7223 100.195 66.686 100.088C66.1547 98.5248 64.4528 93.6149 64.2366 90.3665C64.1225 89.0967 64.1655 87.8291 64.2846 86.5643C64.4784 84.5095 64.7511 82.467 65.2464 80.4591C65.5058 79.4071 66.9015 73.3944 67.7934 72.3538C69.4793 69.9248 66.9689 69.9698 68.2131 68.228C68.9594 67.0396 66.9134 66.3793 68.08 64.9985C68.8408 64.0553 67.9255 63.0269 67.6508 62.6585C66.8528 61.6063 68.174 60.5953 67.9031 59.5967C67.8962 58.1899 66.7948 57.0968 65.3882 57.0793C63.6175 57.0576 62.6195 58.4391 63.015 60.321C63.0501 60.4975 63.1099 60.711 63.0398 60.8409C62.8174 62.9384 61.3984 61.8689 61.6561 64.1733C61.7834 64.9947 62.8163 65.1849 61.9432 66.5363C60.7502 68.2805 63.1676 68.4214 62.1211 70.2927C61.3677 71.551 63.5059 71.7655 62.7191 73.2902C61.6819 75.3183 63.9903 75.2355 62.6241 77.4992C61.3326 79.6403 64.2619 79.5449 62.5006 81.9118Z" fill="white"/>
<path d="M55.475 136.644C56.4043 135.444 57.3816 134.287 58.4923 133.248C58.9918 132.781 59.5138 132.343 60.1103 132.001C60.3841 131.844 61.4226 131.255 61.9635 131.225C64.0342 130.579 64.1769 131.557 68.0995 130.393C69.6651 130.06 72.2038 130.014 76.6661 138.16C78.9333 141.858 82.8074 146.697 84.1727 149.386C86.6921 154.646 86.6656 160.348 86.4706 161.274C86.4353 163.613 85.3036 170.427 80.2962 176.921C78.6933 178.82 76.8891 180.508 74.9295 182.033C74.4446 182.411 73.9604 182.788 73.4165 183.08C72.3937 183.63 70.5567 184.192 68.9945 182.955C66.8343 181.513 66.5835 183.927 64.8323 184.147C62.9773 184.613 59.8634 184.583 53.5403 177.092C41.1806 158.707 52.6219 140.904 55.475 136.644Z" stroke="white" stroke-width="2" stroke-miterlimit="10"/>
<path d="M62.5006 157.812C61.5561 158.894 63.7935 159.607 62.5737 161.565C61.3539 163.956 63.9781 163.311 62.6052 166.06C61.6909 168.024 64.3119 167.801 63.2696 169.824C62.1668 171.964 64.8433 171.307 64.2801 174.28C64.0365 175.73 65.5576 175.273 65.7181 176.898C65.8507 179.974 67.0785 178.931 66.9297 177.533C66.8783 176.986 66.7223 176.095 66.686 175.988C66.1547 174.425 64.4528 169.515 64.2366 166.267C64.1225 164.997 64.1655 163.729 64.2846 162.465C64.4784 160.41 64.7511 158.367 65.2464 156.36C65.5058 155.308 66.9015 149.295 67.7934 148.254C69.4793 145.825 66.9689 145.87 68.2131 144.128C68.9594 142.94 66.9134 142.28 68.08 140.899C68.8408 139.956 67.9255 138.927 67.6508 138.559C66.8528 137.507 68.174 136.496 67.9031 135.497C67.8962 134.09 66.7948 132.997 65.3882 132.98C63.6175 132.958 62.6195 134.339 63.015 136.221C63.0501 136.398 63.1099 136.611 63.0398 136.741C62.8174 138.839 61.3984 137.769 61.6561 140.074C61.7834 140.895 62.8163 141.085 61.9432 142.437C60.7502 144.181 63.1676 144.322 62.1211 146.193C61.3677 147.451 63.5059 147.666 62.7191 149.191C61.6819 151.219 63.9903 151.136 62.6241 153.4C61.3326 155.541 64.2619 155.445 62.5006 157.812Z" fill="white"/>
<path d="M321.828 92.7602C320.523 91.9874 319.253 91.1618 318.084 90.189C317.558 89.7515 317.058 89.2882 316.645 88.7389C316.455 88.4867 315.741 87.5297 315.644 86.9967C314.745 85.0226 315.698 84.7592 314.055 81.012C313.529 79.5001 313.168 76.9868 320.695 71.5451C324.082 68.8353 328.401 64.3888 330.899 62.6995C335.804 59.5448 341.465 58.8613 342.409 58.9393C344.734 58.6832 351.636 58.9579 358.702 63.1179C360.786 64.472 362.686 66.0518 364.443 67.8064C364.878 68.2405 365.312 68.6741 365.67 69.1773C366.343 70.1236 367.129 71.8765 366.096 73.5805C364.935 75.9034 367.361 75.8517 367.797 77.5619C368.49 79.3445 368.848 82.438 362.203 89.6442C345.499 104.197 326.411 95.0606 321.828 92.7602Z" stroke="white" stroke-width="2" stroke-miterlimit="10"/>
<path d="M341.958 83.1533C343.149 83.9558 343.579 81.647 345.673 82.6135C348.197 83.5262 347.23 81.0028 350.129 82.0227C352.191 82.6854 351.644 80.1126 353.781 80.895C356.041 81.7228 355.057 79.1488 358.076 79.3376C359.545 79.3988 358.903 77.9464 360.495 77.5847C363.531 77.0703 362.343 75.9818 360.974 76.3036C360.438 76.4227 359.573 76.6883 359.472 76.7378C357.987 77.4595 353.327 79.7593 350.131 80.3783C348.885 80.6495 347.622 80.7647 346.352 80.804C344.29 80.8674 342.229 80.8511 340.175 80.6096C339.099 80.4833 332.959 79.847 331.816 79.0916C329.196 77.7212 329.553 80.2064 327.67 79.1887C326.398 78.5962 325.997 80.7085 324.482 79.7228C323.451 79.0854 322.545 80.1216 322.214 80.44C321.269 81.3628 320.101 80.1778 319.144 80.5709C317.749 80.7529 316.802 81.9817 316.96 83.3796C317.158 85.1392 318.653 85.9575 320.471 85.3307C320.642 85.274 320.847 85.1881 320.984 85.2414C323.093 85.201 322.209 86.7421 324.463 86.1996C325.262 85.971 325.322 84.9224 326.772 85.6205C328.651 86.5871 328.49 84.1709 330.477 84.9763C331.819 85.5672 331.766 83.4189 333.377 84.0098C335.518 84.7865 335.148 82.5063 337.565 83.5801C339.85 84.595 339.39 81.7003 341.958 83.1533Z" fill="white"/>
<path d="M321.828 168.661C320.523 167.888 319.253 167.063 318.084 166.09C317.558 165.652 317.058 165.189 316.645 164.64C316.455 164.388 315.741 163.431 315.644 162.898C314.745 160.923 315.698 160.66 314.055 156.913C313.529 155.401 313.168 152.888 320.695 147.446C324.082 144.736 328.401 140.29 330.899 138.6C335.804 135.446 341.465 134.762 342.409 134.84C344.734 134.584 351.636 134.859 358.702 139.019C360.786 140.373 362.686 141.953 364.443 143.707C364.878 144.141 365.312 144.575 365.67 145.078C366.343 146.025 367.129 147.777 366.096 149.481C364.935 151.804 367.361 151.753 367.797 153.463C368.49 155.245 368.848 158.339 362.203 165.545C345.499 180.098 326.411 170.961 321.828 168.661Z" stroke="white" stroke-width="2" stroke-miterlimit="10"/>
<path d="M341.958 159.055C343.149 159.857 343.579 157.548 345.673 158.515C348.197 159.428 347.23 156.904 350.129 157.924C352.191 158.587 351.644 156.014 353.781 156.796C356.041 157.624 355.057 155.05 358.076 155.239C359.545 155.3 358.903 153.848 360.495 153.486C363.531 152.972 362.343 151.883 360.974 152.205C360.438 152.324 359.573 152.59 359.472 152.639C357.987 153.361 353.327 155.661 350.131 156.28C348.885 156.551 347.622 156.666 346.352 156.705C344.29 156.769 342.229 156.752 340.175 156.511C339.099 156.385 332.959 155.748 331.816 154.993C329.196 153.623 329.553 156.108 327.67 155.09C326.398 154.498 325.997 156.61 324.482 155.624C323.451 154.987 322.545 156.023 322.214 156.341C321.269 157.264 320.101 156.079 319.144 156.472C317.749 156.654 316.802 157.883 316.96 159.281C317.158 161.041 318.653 161.859 320.471 161.232C320.642 161.175 320.847 161.089 320.984 161.143C323.093 161.102 322.209 162.643 324.463 162.101C325.262 161.872 325.322 160.824 326.772 161.522C328.651 162.488 328.49 160.072 330.477 160.878C331.819 161.468 331.766 159.32 333.377 159.911C335.518 160.688 335.148 158.408 337.565 159.481C339.85 160.496 339.39 157.602 341.958 159.055Z" fill="white"/>
<path d="M207.028 92.7602C205.722 91.9874 204.452 91.1618 203.284 90.189C202.758 89.7515 202.258 89.2882 201.845 88.7389C201.655 88.4867 200.941 87.5297 200.843 86.9967C199.945 85.0226 200.898 84.7592 199.255 81.012C198.729 79.5001 198.368 76.9868 205.895 71.5451C209.281 68.8353 213.601 64.3888 216.098 62.6995C221.004 59.5448 226.665 58.8613 227.608 58.9393C229.934 58.6832 236.835 58.9579 243.902 63.1179C245.986 64.472 247.886 66.0518 249.643 67.8064C250.078 68.2405 250.512 68.6741 250.869 69.1773C251.543 70.1236 252.329 71.8765 251.296 73.5805C250.134 75.9034 252.561 75.8517 252.997 77.5619C253.69 79.3445 254.048 82.438 247.403 89.6442C230.699 104.197 211.611 95.0606 207.028 92.7602Z" stroke="white" stroke-width="2" stroke-miterlimit="10"/>
<path d="M227.158 83.1533C228.349 83.9558 228.779 81.647 230.873 82.6135C233.397 83.5262 232.43 81.0028 235.33 82.0227C237.391 82.6854 236.844 80.1126 238.981 80.895C241.241 81.7228 240.257 79.1488 243.277 79.3376C244.745 79.3988 244.103 77.9464 245.696 77.5847C248.731 77.0703 247.543 75.9818 246.174 76.3036C245.638 76.4227 244.773 76.6883 244.672 76.7378C243.187 77.4595 238.528 79.7593 235.331 80.3783C234.086 80.6495 232.823 80.7647 231.553 80.804C229.49 80.8674 227.429 80.8511 225.375 80.6096C224.299 80.4833 218.159 79.847 217.016 79.0916C214.396 77.7212 214.753 80.2064 212.87 79.1887C211.598 78.5962 211.197 80.7085 209.682 79.7228C208.652 79.0854 207.745 80.1216 207.414 80.44C206.469 81.3628 205.301 80.1778 204.344 80.5709C202.949 80.7529 202.002 81.9817 202.16 83.3796C202.359 85.1392 203.854 85.9575 205.672 85.3307C205.842 85.274 206.047 85.1881 206.184 85.2414C208.293 85.201 207.409 86.7421 209.663 86.1996C210.462 85.971 210.522 84.9224 211.972 85.6205C213.851 86.5871 213.69 84.1709 215.677 84.9763C217.019 85.5672 216.966 83.4189 218.577 84.0098C220.718 84.7865 220.349 82.5063 222.765 83.5801C225.05 84.595 224.591 81.7003 227.158 83.1533Z" fill="white"/>
<path d="M207.028 168.661C205.722 167.888 204.452 167.063 203.284 166.09C202.758 165.652 202.258 165.189 201.845 164.64C201.655 164.388 200.941 163.431 200.843 162.898C199.945 160.923 200.898 160.66 199.255 156.913C198.729 155.401 198.368 152.888 205.895 147.446C209.281 144.736 213.601 140.29 216.098 138.6C221.004 135.446 226.665 134.762 227.608 134.84C229.934 134.584 236.835 134.859 243.902 139.019C245.986 140.373 247.886 141.953 249.643 143.707C250.078 144.141 250.512 144.575 250.869 145.078C251.543 146.025 252.329 147.777 251.296 149.481C250.134 151.804 252.561 151.753 252.997 153.463C253.69 155.245 254.048 158.339 247.403 165.545C230.699 180.098 211.611 170.961 207.028 168.661Z" stroke="white" stroke-width="2" stroke-miterlimit="10"/>
<path d="M227.158 159.055C228.349 159.857 228.779 157.548 230.873 158.515C233.397 159.428 232.43 156.904 235.33 157.924C237.391 158.587 236.844 156.014 238.981 156.796C241.241 157.624 240.257 155.05 243.277 155.239C244.745 155.3 244.103 153.848 245.696 153.486C248.731 152.972 247.543 151.883 246.174 152.205C245.638 152.324 244.773 152.59 244.672 152.639C243.187 153.361 238.528 155.661 235.331 156.28C234.086 156.551 232.823 156.666 231.553 156.705C229.49 156.769 227.429 156.752 225.375 156.511C224.299 156.385 218.159 155.748 217.016 154.993C214.396 153.623 214.753 156.108 212.87 155.09C211.598 154.498 211.197 156.61 209.682 155.624C208.652 154.987 207.745 156.023 207.414 156.341C206.469 157.264 205.301 156.079 204.344 156.472C202.949 156.654 202.002 157.883 202.16 159.281C202.359 161.041 203.854 161.859 205.672 161.232C205.842 161.175 206.047 161.089 206.184 161.143C208.293 161.102 207.409 162.643 209.663 162.101C210.462 161.872 210.522 160.824 211.972 161.522C213.851 162.488 213.69 160.072 215.677 160.878C217.019 161.468 216.966 159.32 218.577 159.911C220.718 160.688 220.349 158.408 222.765 159.481C225.05 160.496 224.591 157.602 227.158 159.055Z" fill="white"/>
<path d="M274.639 60.7428C275.568 59.5433 276.545 58.3861 277.656 57.3476C278.155 56.8805 278.677 56.4422 279.274 56.1004C279.548 55.9435 280.586 55.3538 281.127 55.3237C283.198 54.6778 283.34 55.6563 287.263 54.4923C288.829 54.1589 291.367 54.1134 295.83 62.2593C298.097 65.9569 301.971 70.7964 303.336 73.4848C305.856 78.7447 305.829 84.447 305.634 85.3734C305.599 87.7124 304.467 94.5264 299.46 101.02C297.857 102.919 296.053 104.607 294.093 106.133C293.608 106.51 293.124 106.887 292.58 107.179C291.557 107.729 289.72 108.291 288.158 107.054C285.998 105.612 285.747 108.026 283.996 108.246C282.141 108.712 279.027 108.682 272.704 101.192C260.344 82.8059 271.785 65.0036 274.639 60.7428Z" stroke="white" stroke-width="2" stroke-miterlimit="10"/>
<path d="M281.665 81.9118C280.72 82.9933 282.958 83.707 281.738 85.6647C280.518 88.0554 283.142 87.4105 281.769 90.1601C280.855 92.1233 283.476 91.9003 282.434 93.9233C281.331 96.0632 284.007 95.4067 283.444 98.3796C283.201 99.8293 284.722 99.3726 284.882 100.998C285.015 104.074 286.243 103.031 286.094 101.632C286.042 101.086 285.886 100.195 285.85 100.088C285.319 98.5248 283.617 93.6149 283.401 90.3665C283.287 89.0967 283.33 87.8291 283.449 86.5643C283.643 84.5095 283.915 82.467 284.411 80.4591C284.67 79.4071 286.066 73.3944 286.957 72.3538C288.643 69.9248 286.133 69.9698 287.377 68.228C288.123 67.0396 286.077 66.3793 287.244 64.9985C288.005 64.0553 287.09 63.0269 286.815 62.6585C286.017 61.6063 287.338 60.5953 287.067 59.5967C287.06 58.1899 285.959 57.0968 284.552 57.0793C282.782 57.0576 281.784 58.4391 282.179 60.321C282.214 60.4975 282.274 60.711 282.204 60.8409C281.981 62.9384 280.562 61.8689 280.82 64.1733C280.947 64.9947 281.98 65.1849 281.107 66.5363C279.914 68.2805 282.332 68.4214 281.285 70.2927C280.532 71.551 282.67 71.7655 281.883 73.2902C280.846 75.3183 283.154 75.2355 281.788 77.4992C280.497 79.6403 283.426 79.5449 281.665 81.9118Z" fill="white"/>
<path d="M274.639 136.644C275.568 135.444 276.545 134.287 277.656 133.248C278.155 132.781 278.677 132.343 279.274 132.001C279.548 131.844 280.586 131.255 281.127 131.225C283.198 130.579 283.34 131.557 287.263 130.393C288.829 130.06 291.367 130.014 295.83 138.16C298.097 141.858 301.971 146.697 303.336 149.386C305.856 154.646 305.829 160.348 305.634 161.274C305.599 163.613 304.467 170.427 299.46 176.921C297.857 178.82 296.053 180.508 294.093 182.033C293.608 182.411 293.124 182.788 292.58 183.08C291.557 183.63 289.72 184.192 288.158 182.955C285.998 181.513 285.747 183.927 283.996 184.147C282.141 184.613 279.027 184.583 272.704 177.092C260.344 158.707 271.785 140.904 274.639 136.644Z" stroke="white" stroke-width="2" stroke-miterlimit="10"/>
<path d="M281.665 157.812C280.72 158.894 282.958 159.607 281.738 161.565C280.518 163.956 283.142 163.311 281.769 166.06C280.855 168.024 283.476 167.801 282.434 169.824C281.331 171.964 284.007 171.307 283.444 174.28C283.201 175.73 284.722 175.273 284.882 176.898C285.015 179.974 286.243 178.931 286.094 177.533C286.042 176.986 285.886 176.095 285.85 175.988C285.319 174.425 283.617 169.515 283.401 166.267C283.287 164.997 283.33 163.729 283.449 162.465C283.643 160.41 283.915 158.367 284.411 156.36C284.67 155.308 286.066 149.295 286.957 148.254C288.643 145.825 286.133 145.87 287.377 144.128C288.123 142.94 286.077 142.28 287.244 140.899C288.005 139.956 287.09 138.927 286.815 138.559C286.017 137.507 287.338 136.496 287.067 135.497C287.06 134.09 285.959 132.997 284.552 132.98C282.782 132.958 281.784 134.339 282.179 136.221C282.214 136.398 282.274 136.611 282.204 136.741C281.981 138.839 280.562 137.769 280.82 140.074C280.947 140.895 281.98 141.085 281.107 142.437C279.914 144.181 282.332 144.322 281.285 146.193C280.532 147.451 282.67 147.666 281.883 149.191C280.846 151.219 283.154 151.136 281.788 153.4C280.497 155.541 283.426 155.445 281.665 157.812Z" fill="white"/>
<path d="M159.839 60.7428C160.769 59.5433 161.746 58.3861 162.857 57.3476C163.356 56.8805 163.878 56.4422 164.475 56.1004C164.748 55.9435 165.787 55.3538 166.328 55.3237C168.398 54.6778 168.541 55.6563 172.464 54.4923C174.029 54.1589 176.568 54.1134 181.03 62.2593C183.298 65.9569 187.172 70.7964 188.537 73.4848C191.056 78.7447 191.03 84.447 190.835 85.3734C190.8 87.7124 189.668 94.5264 184.66 101.02C183.058 102.919 181.253 104.607 179.294 106.133C178.809 106.51 178.325 106.887 177.781 107.179C176.758 107.729 174.921 108.291 173.359 107.054C171.199 105.612 170.948 108.026 169.197 108.246C167.342 108.712 164.228 108.682 157.905 101.192C145.545 82.8059 156.986 65.0036 159.839 60.7428Z" stroke="white" stroke-width="2" stroke-miterlimit="10"/>
<path d="M166.865 81.9108C165.92 82.9923 168.158 83.706 166.938 85.6637C165.718 88.0544 168.342 87.4095 166.969 90.1591C166.055 92.1223 168.676 91.8993 167.634 93.9223C166.531 96.0622 169.208 95.4058 168.644 98.3787C168.401 99.8283 169.922 99.3716 170.082 100.997C170.215 104.073 171.443 103.03 171.294 101.631C171.243 101.085 171.087 100.194 171.05 100.087C170.519 98.5239 168.817 93.614 168.601 90.3655C168.487 89.0958 168.53 87.8281 168.649 86.5633C168.843 84.5086 169.115 82.466 169.611 80.4582C169.87 79.4062 171.266 73.3934 172.158 72.3529C173.844 69.9238 171.333 69.9689 172.577 68.2271C173.324 67.0386 171.278 66.3783 172.444 64.9976C173.205 64.0543 172.29 63.0259 172.015 62.6575C171.217 61.6053 172.538 60.5943 172.267 59.5958C172.26 58.1889 171.159 57.0958 169.752 57.0784C167.982 57.0566 166.984 58.4381 167.379 60.32C167.414 60.4965 167.474 60.71 167.404 60.8399C167.182 62.9375 165.763 61.8679 166.02 64.1723C166.148 64.9938 167.181 65.1839 166.307 66.5353C165.114 68.2796 167.532 68.4204 166.485 70.2918C165.732 71.5501 167.87 71.7646 167.083 73.2892C166.046 75.3174 168.355 75.2345 166.988 77.4982C165.697 79.6394 168.626 79.5439 166.865 81.9108Z" fill="white"/>
<path d="M159.839 136.644C160.769 135.444 161.746 134.287 162.857 133.248C163.356 132.781 163.878 132.343 164.475 132.001C164.748 131.844 165.787 131.255 166.328 131.225C168.398 130.579 168.541 131.557 172.464 130.393C174.029 130.06 176.568 130.014 181.03 138.16C183.298 141.858 187.172 146.697 188.537 149.386C191.056 154.646 191.03 160.348 190.835 161.274C190.8 163.613 189.668 170.427 184.66 176.921C183.058 178.82 181.253 180.508 179.294 182.033C178.809 182.411 178.325 182.788 177.781 183.08C176.758 183.63 174.921 184.192 173.359 182.955C171.199 181.513 170.948 183.927 169.197 184.147C167.342 184.613 164.228 184.583 157.905 177.092C145.545 158.707 156.986 140.904 159.839 136.644Z" stroke="white" stroke-width="2" stroke-miterlimit="10"/>
<path d="M166.866 157.812C165.921 158.894 168.159 159.607 166.939 161.565C165.719 163.956 168.343 163.311 166.97 166.06C166.056 168.024 168.677 167.801 167.635 169.824C166.532 171.964 169.208 171.307 168.645 174.28C168.402 175.73 169.923 175.273 170.083 176.898C170.216 179.974 171.444 178.931 171.295 177.533C171.243 176.986 171.088 176.095 171.051 175.988C170.52 174.425 168.818 169.515 168.602 166.267C168.488 164.997 168.531 163.729 168.65 162.465C168.844 160.41 169.116 158.367 169.612 156.36C169.871 155.308 171.267 149.295 172.159 148.254C173.845 145.825 171.334 145.87 172.578 144.128C173.325 142.94 171.279 142.28 172.445 140.899C173.206 139.956 172.291 138.927 172.016 138.559C171.218 137.507 172.539 136.496 172.268 135.497C172.261 134.09 171.16 132.997 169.753 132.98C167.983 132.958 166.985 134.339 167.38 136.221C167.415 136.398 167.475 136.611 167.405 136.741C167.183 138.839 165.764 137.769 166.021 140.074C166.149 140.895 167.182 141.085 166.308 142.437C165.115 144.181 167.533 144.322 166.486 146.193C165.733 147.451 167.871 147.666 167.084 149.191C166.047 151.219 168.356 151.136 166.989 153.4C165.698 155.541 168.627 155.445 166.866 157.812Z" fill="white"/>
<path d="M102.665 33.9369C101.359 33.1641 100.089 32.3385 98.9204 31.3657C98.3947 30.9282 97.8948 30.4649 97.4815 29.9156C97.2916 29.6634 96.5773 28.7064 96.4801 28.1734C95.5815 26.1993 96.5346 25.9359 94.8912 22.1887C94.3656 20.6768 94.0044 18.1635 101.531 12.7218C104.918 10.012 109.238 5.56554 111.735 3.87615C116.64 0.721473 122.302 0.0379691 123.245 0.116036C125.57 -0.140068 132.472 0.13457 139.539 4.29457C141.622 5.64866 143.522 7.22852 145.28 8.98306C145.714 9.4172 146.148 9.85078 146.506 10.354C147.18 11.3003 147.965 13.0532 146.932 14.7572C145.771 17.0801 148.197 17.0284 148.634 18.7386C149.327 20.5212 149.684 23.6147 143.04 30.8209C126.336 45.3733 107.248 36.2373 102.665 33.9369Z" stroke="white" stroke-width="2" stroke-miterlimit="10"/>
<path d="M122.794 24.3299C123.985 25.1324 124.415 22.8236 126.509 23.7902C129.033 24.7028 128.066 22.1794 130.965 23.1993C133.027 23.862 132.48 21.2892 134.617 22.0716C136.877 22.8994 135.893 20.3255 138.912 20.5142C140.381 20.5754 139.739 19.123 141.331 18.7613C144.367 18.2469 143.179 17.1584 141.81 17.4802C141.274 17.5993 140.409 17.8649 140.308 17.9144C138.823 18.6361 134.163 20.9359 130.967 21.5549C129.721 21.8261 128.458 21.9413 127.188 21.9806C125.126 22.044 123.065 22.0278 121.011 21.7863C119.935 21.6599 113.795 21.0236 112.652 20.2682C110.032 18.8978 110.389 21.383 108.506 20.3653C107.234 19.7728 106.833 21.8851 105.318 20.8994C104.287 20.262 103.381 21.2982 103.05 21.6166C102.105 22.5394 100.937 21.3544 99.9802 21.7475C98.5851 21.9295 97.6376 23.1583 97.7955 24.5562C97.9943 26.3158 99.4893 27.1341 101.307 26.5073C101.478 26.4506 101.683 26.3647 101.82 26.418C103.929 26.3776 103.044 27.9187 105.299 27.3762C106.098 27.1476 106.158 26.099 107.608 26.7971C109.487 27.7637 109.326 25.3476 111.313 26.1529C112.655 26.7438 112.602 24.5955 114.212 25.1864C116.354 25.9631 115.984 23.6829 118.401 24.7567C120.686 25.7716 120.226 22.8769 122.794 24.3299Z" fill="white"/>
<path d="M-12.1355 33.9369C-13.4413 33.1641 -14.7112 32.3385 -15.8799 31.3657C-16.4056 30.9282 -16.9055 30.4649 -17.3188 29.9156C-17.5086 29.6634 -18.223 28.7064 -18.3202 28.1734C-19.2188 26.1993 -18.2657 25.9359 -19.9091 22.1887C-20.4347 20.6768 -20.7959 18.1635 -13.2689 12.7218C-9.88227 10.012 -5.56277 5.56554 -3.0652 3.87615C1.84008 0.721473 7.50132 0.0379691 8.44486 0.116036C10.77 -0.140068 17.6719 0.13457 24.7383 4.29457C26.822 5.64866 28.722 7.22852 30.4793 8.98306C30.914 9.4172 31.3481 9.85078 31.7059 10.354C32.3793 11.3003 33.165 13.0532 32.1322 14.7572C30.9707 17.0801 33.397 17.0284 33.8334 18.7386C34.5264 20.5212 34.8842 23.6147 28.2395 30.8209C11.5355 45.3733 -7.55262 36.2373 -12.1355 33.9369Z" stroke="white" stroke-width="2" stroke-miterlimit="10"/>
<path d="M7.99342 24.3299C9.18407 25.1324 9.61372 22.8236 11.708 23.7902C14.232 24.7028 13.2654 22.1794 16.1646 23.1993C18.2263 23.862 17.6787 21.2892 19.8157 22.0716C22.0763 22.8994 21.0918 20.3255 24.1117 20.5142C25.5803 20.5754 24.9378 19.123 26.5306 18.7613C29.5662 18.2469 28.3784 17.1584 27.0091 17.4802C26.4733 17.5993 25.6084 17.8649 25.5067 17.9144C24.0224 18.6361 19.3625 20.9359 16.1663 21.5549C14.9206 21.8261 13.6575 21.9413 12.3876 21.9806C10.3247 22.044 8.26412 22.0278 6.21024 21.7863C5.13416 21.6599 -1.00559 21.0236 -2.14907 20.2682C-4.76907 18.8978 -4.41187 21.383 -6.29502 20.3653C-7.56711 19.7728 -7.96756 21.8851 -9.48284 20.8994C-10.5134 20.262 -11.4199 21.2982 -11.7513 21.6166C-12.6959 22.5394 -13.8636 21.3544 -14.8206 21.7475C-16.2157 21.9295 -17.1631 23.1583 -17.0053 24.5562C-16.8065 26.3158 -15.3114 27.1341 -13.4934 26.5073C-13.3227 26.4506 -13.1183 26.3647 -12.9807 26.418C-10.8717 26.3776 -11.7563 27.9187 -9.50193 27.3762C-8.70273 27.1476 -8.64264 26.099 -7.19307 26.7971C-5.31385 27.7637 -5.47504 25.3476 -3.48799 26.1529C-2.1457 26.7438 -2.19905 24.5955 -0.588293 25.1864C1.5532 25.9631 1.18365 23.6829 3.59978 24.7567C5.88506 25.7716 5.42564 22.8769 7.99342 24.3299Z" fill="white"/>
<path d="M55.475 1.91943C56.4043 0.720005 57.3816 -0.437184 58.4923 -1.47575C58.9918 -1.94288 59.5138 -2.38116 60.1103 -2.72292C60.3841 -2.87988 61.4226 -3.46958 61.9635 -3.49963C64.0342 -4.14549 64.1769 -3.16702 68.0995 -4.33108C69.6651 -4.66445 72.2038 -4.70989 76.6661 3.43596C78.9333 7.13361 82.8074 11.973 84.1727 14.6615C86.6921 19.9213 86.6656 25.6236 86.4706 26.5501C86.4353 28.8891 85.3036 35.7031 80.2962 42.1966C78.6933 44.0955 76.8891 45.784 74.9295 47.3093C74.4446 47.6866 73.9604 48.0633 73.4165 48.3557C72.3937 48.906 70.5567 49.4674 68.9945 48.2305C66.8343 46.7889 66.5835 49.2027 64.8323 49.4228C62.9773 49.8885 59.8634 49.8584 53.5403 42.3683C41.1806 23.9826 52.6219 6.1803 55.475 1.91943Z" stroke="white" stroke-width="2" stroke-miterlimit="10"/>
<path d="M62.5006 23.0883C61.5561 24.1698 63.7935 24.8836 62.5737 26.8413C61.3539 29.232 63.9781 28.5871 62.6052 31.3367C61.6909 33.2999 64.3119 33.0769 63.2696 35.0998C62.1668 37.2398 64.8433 36.5833 64.2801 39.5562C64.0365 41.0058 65.5576 40.5491 65.7181 42.1746C65.8507 45.2506 67.0785 44.2075 66.9297 42.8088C66.8783 42.2624 66.7223 41.3711 66.686 41.2641C66.1547 39.7014 64.4528 34.7915 64.2366 31.5431C64.1225 30.2733 64.1655 29.0057 64.2846 27.7408C64.4784 25.6861 64.7511 23.6435 65.2464 21.6357C65.5058 20.5837 66.9015 14.571 67.7934 13.5304C69.4793 11.1014 66.9689 11.1464 68.2131 9.40462C68.9594 8.21618 66.9134 7.55589 68.08 6.17511C68.8408 5.23189 67.9255 4.20347 67.6508 3.83505C66.8528 2.78286 68.174 1.77184 67.9031 0.773321C67.8962 -0.633569 66.7948 -1.72665 65.3882 -1.74409C63.6175 -1.76587 62.6195 -0.38431 63.015 1.49757C63.0501 1.67404 63.1099 1.88758 63.0398 2.01747C62.8174 4.11502 61.3984 3.04548 61.6561 5.34987C61.7834 6.17131 62.8163 6.36147 61.9432 7.71285C60.7502 9.45712 63.1676 9.59797 62.1211 11.4693C61.3677 12.7276 63.5059 12.9421 62.7191 14.4668C61.6819 16.4949 63.9903 16.4121 62.6241 18.6758C61.3326 20.8169 64.2619 20.7214 62.5006 23.0883Z" fill="white"/>
<path d="M321.828 33.9369C320.523 33.1641 319.253 32.3385 318.084 31.3657C317.558 30.9282 317.058 30.4649 316.645 29.9156C316.455 29.6634 315.741 28.7064 315.644 28.1734C314.745 26.1993 315.698 25.9359 314.055 22.1887C313.529 20.6768 313.168 18.1635 320.695 12.7218C324.082 10.012 328.401 5.56554 330.899 3.87615C335.804 0.721473 341.465 0.0379691 342.409 0.116036C344.734 -0.140068 351.636 0.13457 358.702 4.29457C360.786 5.64866 362.686 7.22852 364.443 8.98306C364.878 9.4172 365.312 9.85078 365.67 10.354C366.343 11.3003 367.129 13.0532 366.096 14.7572C364.935 17.0801 367.361 17.0284 367.797 18.7386C368.49 20.5212 368.848 23.6147 362.203 30.8209C345.499 45.3733 326.411 36.2373 321.828 33.9369Z" stroke="white" stroke-width="2" stroke-miterlimit="10"/>
<path d="M341.958 24.3299C343.149 25.1324 343.579 22.8236 345.673 23.7902C348.197 24.7028 347.23 22.1794 350.129 23.1993C352.191 23.862 351.644 21.2892 353.781 22.0716C356.041 22.8994 355.057 20.3255 358.076 20.5142C359.545 20.5754 358.903 19.123 360.495 18.7613C363.531 18.2469 362.343 17.1584 360.974 17.4802C360.438 17.5993 359.573 17.8649 359.472 17.9144C357.987 18.6361 353.327 20.9359 350.131 21.5549C348.885 21.8261 347.622 21.9413 346.352 21.9806C344.29 22.044 342.229 22.0278 340.175 21.7863C339.099 21.6599 332.959 21.0236 331.816 20.2682C329.196 18.8978 329.553 21.383 327.67 20.3653C326.398 19.7728 325.997 21.8851 324.482 20.8994C323.451 20.262 322.545 21.2982 322.214 21.6166C321.269 22.5394 320.101 21.3544 319.144 21.7475C317.749 21.9295 316.802 23.1583 316.96 24.5562C317.158 26.3158 318.653 27.1341 320.471 26.5073C320.642 26.4506 320.847 26.3647 320.984 26.418C323.093 26.3776 322.209 27.9187 324.463 27.3762C325.262 27.1476 325.322 26.099 326.772 26.7971C328.651 27.7637 328.49 25.3476 330.477 26.1529C331.819 26.7438 331.766 24.5955 333.377 25.1864C335.518 25.9631 335.148 23.6829 337.565 24.7567C339.85 25.7716 339.39 22.8769 341.958 24.3299Z" fill="white"/>
<path d="M207.028 33.9369C205.722 33.1641 204.452 32.3385 203.284 31.3657C202.758 30.9282 202.258 30.4649 201.845 29.9156C201.655 29.6634 200.941 28.7064 200.843 28.1734C199.945 26.1993 200.898 25.9359 199.255 22.1887C198.729 20.6768 198.368 18.1635 205.895 12.7218C209.281 10.012 213.601 5.56554 216.098 3.87615C221.004 0.721473 226.665 0.0379691 227.608 0.116036C229.934 -0.140068 236.835 0.13457 243.902 4.29457C245.986 5.64866 247.886 7.22852 249.643 8.98306C250.078 9.4172 250.512 9.85078 250.869 10.354C251.543 11.3003 252.329 13.0532 251.296 14.7572C250.134 17.0801 252.561 17.0284 252.997 18.7386C253.69 20.5212 254.048 23.6147 247.403 30.8209C230.699 45.3733 211.611 36.2373 207.028 33.9369Z" stroke="white" stroke-width="2" stroke-miterlimit="10"/>
<path d="M227.158 24.3299C228.349 25.1324 228.779 22.8236 230.873 23.7902C233.397 24.7028 232.43 22.1794 235.33 23.1993C237.391 23.862 236.844 21.2892 238.981 22.0716C241.241 22.8994 240.257 20.3255 243.277 20.5142C244.745 20.5754 244.103 19.123 245.696 18.7613C248.731 18.2469 247.543 17.1584 246.174 17.4802C245.638 17.5993 244.773 17.8649 244.672 17.9144C243.187 18.6361 238.528 20.9359 235.331 21.5549C234.086 21.8261 232.823 21.9413 231.553 21.9806C229.49 22.044 227.429 22.0278 225.375 21.7863C224.299 21.6599 218.159 21.0236 217.016 20.2682C214.396 18.8978 214.753 21.383 212.87 20.3653C211.598 19.7728 211.197 21.8851 209.682 20.8994C208.652 20.262 207.745 21.2982 207.414 21.6166C206.469 22.5394 205.301 21.3544 204.344 21.7475C202.949 21.9295 202.002 23.1583 202.16 24.5562C202.359 26.3158 203.854 27.1341 205.672 26.5073C205.842 26.4506 206.047 26.3647 206.184 26.418C208.293 26.3776 207.409 27.9187 209.663 27.3762C210.462 27.1476 210.522 26.099 211.972 26.7971C213.851 27.7637 213.69 25.3476 215.677 26.1529C217.019 26.7438 216.966 24.5955 218.577 25.1864C220.718 25.9631 220.349 23.6829 222.765 24.7567C225.05 25.7716 224.591 22.8769 227.158 24.3299Z" fill="white"/>
<path d="M274.639 1.91943C275.568 0.720005 276.545 -0.437184 277.656 -1.47575C278.155 -1.94288 278.677 -2.38116 279.274 -2.72292C279.548 -2.87988 280.586 -3.46958 281.127 -3.49963C283.198 -4.14549 283.34 -3.16702 287.263 -4.33108C288.829 -4.66445 291.367 -4.70989 295.83 3.43596C298.097 7.13361 301.971 11.973 303.336 14.6615C305.856 19.9213 305.829 25.6236 305.634 26.5501C305.599 28.8891 304.467 35.7031 299.46 42.1966C297.857 44.0955 296.053 45.784 294.093 47.3093C293.608 47.6866 293.124 48.0633 292.58 48.3557C291.557 48.906 289.72 49.4674 288.158 48.2305C285.998 46.7889 285.747 49.2027 283.996 49.4228C282.141 49.8885 279.027 49.8584 272.704 42.3683C260.344 23.9826 271.785 6.1803 274.639 1.91943Z" stroke="white" stroke-width="2" stroke-miterlimit="10"/>
<path d="M281.665 23.0883C280.72 24.1698 282.958 24.8836 281.738 26.8413C280.518 29.232 283.142 28.5871 281.769 31.3367C280.855 33.2999 283.476 33.0769 282.434 35.0998C281.331 37.2398 284.007 36.5833 283.444 39.5562C283.201 41.0058 284.722 40.5491 284.882 42.1746C285.015 45.2506 286.243 44.2075 286.094 42.8088C286.042 42.2624 285.886 41.3711 285.85 41.2641C285.319 39.7014 283.617 34.7915 283.401 31.5431C283.287 30.2733 283.33 29.0057 283.449 27.7408C283.643 25.6861 283.915 23.6435 284.411 21.6357C284.67 20.5837 286.066 14.571 286.957 13.5304C288.643 11.1014 286.133 11.1464 287.377 9.40462C288.123 8.21618 286.077 7.55589 287.244 6.17511C288.005 5.23189 287.09 4.20347 286.815 3.83505C286.017 2.78286 287.338 1.77184 287.067 0.773321C287.06 -0.633569 285.959 -1.72665 284.552 -1.74409C282.782 -1.76587 281.784 -0.38431 282.179 1.49757C282.214 1.67404 282.274 1.88758 282.204 2.01747C281.981 4.11502 280.562 3.04548 280.82 5.34987C280.947 6.17131 281.98 6.36147 281.107 7.71285C279.914 9.45712 282.332 9.59797 281.285 11.4693C280.532 12.7276 282.67 12.9421 281.883 14.4668C280.846 16.4949 283.154 16.4121 281.788 18.6758C280.497 20.8169 283.426 20.7214 281.665 23.0883Z" fill="white"/>
<path d="M159.839 1.91943C160.769 0.720005 161.746 -0.437184 162.857 -1.47575C163.356 -1.94288 163.878 -2.38116 164.475 -2.72292C164.748 -2.87988 165.787 -3.46958 166.328 -3.49963C168.398 -4.14549 168.541 -3.16702 172.464 -4.33108C174.029 -4.66445 176.568 -4.70989 181.03 3.43596C183.298 7.13361 187.172 11.973 188.537 14.6615C191.056 19.9213 191.03 25.6236 190.835 26.5501C190.8 28.8891 189.668 35.7031 184.66 42.1966C183.058 44.0955 181.253 45.784 179.294 47.3093C178.809 47.6866 178.325 48.0633 177.781 48.3557C176.758 48.906 174.921 49.4674 173.359 48.2305C171.199 46.7889 170.948 49.2027 169.197 49.4228C167.342 49.8885 164.228 49.8584 157.905 42.3683C145.545 23.9826 156.986 6.1803 159.839 1.91943Z" stroke="white" stroke-width="2" stroke-miterlimit="10"/>
<path d="M166.866 23.0883C165.921 24.1698 168.159 24.8836 166.939 26.8413C165.719 29.232 168.343 28.5871 166.97 31.3367C166.056 33.2999 168.677 33.0769 167.635 35.0998C166.532 37.2398 169.208 36.5833 168.645 39.5562C168.402 41.0058 169.923 40.5491 170.083 42.1746C170.216 45.2506 171.444 44.2075 171.295 42.8088C171.243 42.2624 171.088 41.3711 171.051 41.2641C170.52 39.7014 168.818 34.7915 168.602 31.5431C168.488 30.2733 168.531 29.0057 168.65 27.7408C168.844 25.6861 169.116 23.6435 169.612 21.6357C169.871 20.5837 171.267 14.571 172.159 13.5304C173.845 11.1014 171.334 11.1464 172.578 9.40462C173.325 8.21618 171.279 7.55589 172.445 6.17511C173.206 5.23189 172.291 4.20347 172.016 3.83505C171.218 2.78286 172.539 1.77184 172.268 0.773321C172.261 -0.633569 171.16 -1.72665 169.753 -1.74409C167.983 -1.76587 166.985 -0.38431 167.38 1.49757C167.415 1.67404 167.475 1.88758 167.405 2.01747C167.183 4.11502 165.764 3.04548 166.021 5.34987C166.149 6.17131 167.182 6.36147 166.308 7.71285C165.115 9.45712 167.533 9.59797 166.486 11.4693C165.733 12.7276 167.871 12.9421 167.084 14.4668C166.047 16.4949 168.356 16.4121 166.989 18.6758C165.698 20.8169 168.627 20.7214 166.866 23.0883Z" fill="white"/>
</g>
</g>
</svg>
