<svg width="113" height="113" viewBox="0 0 113 113" fill="none" xmlns="http://www.w3.org/2000/svg">
<path d="M69.8667 88.1844C87.5249 80.6418 95.7252 60.2125 88.1827 42.5543C80.6401 24.8961 60.2108 16.6958 42.5526 24.2383C24.8944 31.7809 16.6941 52.2102 24.2366 69.8684C31.7792 87.5266 52.2085 95.7269 69.8667 88.1844Z" stroke="#F0EDF2" stroke-width="4.66" stroke-miterlimit="10"/>
<path d="M56.2088 21.4496C75.4337 21.4496 90.9772 36.9931 90.9772 56.218C90.9772 75.4428 75.4337 90.9864 56.2088 90.9864C36.984 90.9864 21.4404 75.4428 21.4404 56.218" stroke="#34D399" stroke-width="4.66" stroke-miterlimit="10" stroke-linecap="round" stroke-linejoin="round"/>
<path d="M73.1206 95.5146C94.8269 86.1761 104.853 61.0092 95.5146 39.3029C86.1761 17.5965 61.0092 7.57037 39.3028 16.9089C17.5965 26.2474 7.57036 51.4142 16.9089 73.1206C26.2474 94.827 51.4142 104.853 73.1206 95.5146Z" stroke="#F0EDF2" stroke-width="4.66" stroke-miterlimit="10"/>
<path d="M91.6318 32.33C96.213 39.1201 98.9127 47.3827 98.9127 56.218C98.9127 79.8605 79.7696 99.0035 56.1271 99.0035C32.4846 99.0035 13.4233 79.8605 13.4233 56.218" stroke="#6D3CC8" stroke-width="4.66" stroke-miterlimit="10" stroke-linecap="round"/>
</svg>
