<svg width="14" height="14" viewBox="0 0 14 14" fill="none" xmlns="http://www.w3.org/2000/svg">
<path fill-rule="evenodd" clip-rule="evenodd" d="M8.3027 4.417L10.3061 6.517C10.3362 6.5485 10.3509 6.5877 10.374 6.6227C10.3992 6.6605 10.4293 6.6941 10.4468 6.7361C10.4811 6.8208 10.5 6.9104 10.5 7C10.5 7.0917 10.4811 7.1827 10.4461 7.2681C10.4104 7.3535 10.3593 7.4312 10.2942 7.4956L8.1949 9.5949C7.9212 9.8686 7.4781 9.8686 7.2051 9.5949C6.9314 9.3219 6.9314 8.8788 7.2051 8.6051L8.1102 7.7H4.2C3.8129 7.7 3.5 7.3871 3.5 7C3.5 6.6136 3.8129 6.3 4.2 6.3H8.1641L7.2898 5.3837C7.0231 5.1037 7.0329 4.6613 7.3129 4.3939C7.5929 4.1265 8.036 4.1377 8.3027 4.417ZM0 7C0 10.8605 3.1402 14 7 14C10.8598 14 14 10.8605 14 7C14 3.1402 10.8598 0 7 0C3.1402 0 0 3.1402 0 7Z" fill="#6D3CC8"/>
</svg>
