<svg width="12" height="12" viewBox="0 0 12 12" fill="none" xmlns="http://www.w3.org/2000/svg">
<path fill-rule="evenodd" clip-rule="evenodd" d="M1.00024 10C1.55324 10 2.00024 9.552 2.00024 9L2.00024 3.414L10.2932 11.707C10.6842 12.098 11.3162 12.098 11.7072 11.707C12.0982 11.316 12.0982 10.684 11.7072 10.293L3.41424 2L9.00024 2C9.55324 2 10.0002 1.552 10.0002 1C10.0002 0.448002 9.55324 1.6934e-06 9.00024 1.64506e-06L1.00024 9.45676e-07C0.447239 8.97331e-07 0.000239429 0.448001 0.00023938 1L0.000238681 9C0.000238633 9.552 0.447239 10 1.00024 10" fill="white"/>
</svg>
